<?xml version="1.0" encoding="utf-8"?>
<svg xmlns="http://www.w3.org/2000/svg" viewBox="11.048 8.4478 823.9041 1007.1044" width="823.904px" height="1007.1px" preserveAspectRatio="none"><g transform="matrix(1, 0, 0, 1, -44.78802556973733, 2.0122211279305873)" id="object-0"><path fill="#000000" opacity="1.000000" stroke="none" d="M 806.844 927.438 C 770.48 946.747 734.559 964.981 699.588 984.878 C 687.24 991.903 682.152 987.154 675.633 977.971 C 631.908 916.369 587.913 854.955 543.963 793.513 C 492.044 720.931 440.173 648.317 388 575.917 C 382.936 568.892 382.555 564.419 389.046 558.04 C 436.123 511.783 482.802 465.122 529.762 418.747 C 541.456 407.197 541.855 407.367 551.648 421.152 C 583.617 466.158 615.431 511.274 647.462 556.238 C 650.475 560.467 652.448 565.904 658.539 568.179 C 663.203 563.814 661.27 558.12 661.275 553.156 C 661.357 468.05 661.419 382.941 661.025 297.837 C 660.978 287.827 664.158 280.77 671.178 273.853 C 736.211 209.736 800.959 145.328 865.85 81.066 C 868.913 78.034 871.258 73.469 876.889 74.141 C 880.707 77.954 879.277 82.773 879.279 87.107 C 879.421 349.901 879.434 612.692 879.74 875.486 C 879.753 885.083 876.8 890.804 868.24 895.108 C 847.854 905.357 827.834 916.334 806.844 927.438 Z" style=""/><path fill="#000000" opacity="1.000000" stroke="none" d="M 55.836 590.584 C 55.853 400.853 55.868 212.367 55.891 23.882 C 55.891 6.758 55.908 6.715 73.14 6.703 C 130.018 6.656 186.898 6.81 243.773 6.444 C 252.58 6.386 258.296 9.068 263.424 16.319 C 342.998 128.836 422.712 241.251 502.727 353.454 C 509.311 362.684 509.042 368.7 500.906 376.676 C 453.49 423.18 406.39 470.008 359.465 517.011 C 352.171 524.317 348.745 520.893 344.227 514.434 C 324.481 486.201 304.508 458.127 284.501 430.078 C 281.967 426.524 280.544 421.675 275.062 420.539 C 269.063 424.137 271.493 430.158 271.483 435.042 C 271.376 489.841 271.421 544.643 271.747 599.445 C 271.795 607.399 270.043 613.619 264.174 619.443 C 198.764 684.374 133.574 749.523 68.288 814.577 C 65.709 817.148 63.521 820.472 55.836 820.933 C 55.836 744.439 55.836 668.135 55.836 590.584 Z" style=""/><path fill="#000000" opacity="1.000000" stroke="none" d="M 169.908 960.794 C 131.822 940.729 94.543 921.116 59.965 902.92 C 130.082 832.264 199.584 762.229 269.714 691.564 C 269.714 797.37 269.714 903.814 269.714 1013.54 C 236.003 995.738 203.359 978.489 169.908 960.794 Z" style=""/><path fill="#000000" opacity="1.000000" stroke="none" d="M 724.245 151.889 C 704.345 171.52 685.075 190.531 666.276 209.076 C 660.231 205.111 661.337 201.48 661.332 198.365 C 661.247 138.981 661.357 79.596 661.12 20.212 C 661.085 11.358 662.708 6.384 673.278 6.436 C 735.152 6.74 797.029 6.509 858.905 6.511 C 860.879 6.511 862.853 7.084 868.32 7.931 C 819.329 56.885 772.102 104.077 724.245 151.889 Z" style=""/></g></svg>